<?xml version="1.0" standalone="no"?>
<!DOCTYPE svg PUBLIC "-//W3C//DTD SVG 20010904//EN"
 "http://www.w3.org/TR/2001/REC-SVG-20010904/DTD/svg10.dtd">
<svg version="1.0" xmlns="http://www.w3.org/2000/svg"
 width="500.000000pt" height="500.000000pt" viewBox="0 0 500.000000 500.000000"
 preserveAspectRatio="xMidYMid meet">
<metadata>
Created by potrace 1.14, written by Peter Selinger 2001-2017
</metadata>
<g transform="translate(0.000000,500.000000) scale(0.100000,-0.100000)"
fill="#000000" stroke="none">
<path d="M1785 3980 c-77 -3 -147 -9 -156 -13 -38 -19 -39 -32 -39 -982 0
-815 -2 -925 -15 -925 -8 -1 -89 -1 -180 -1 -91 0 -173 0 -183 1 -17 0 -19 12
-20 152 -2 168 -10 194 -65 209 -14 4 -148 6 -296 5 l-271 -1 -25 -25 -25 -26
0 -454 0 -455 29 -26 29 -27 823 -1 c505 0 838 3 860 9 68 19 64 -62 64 1288
l0 1220 -24 21 c-31 27 -58 34 -121 29 -27 -1 -50 -1 -50 2 0 6 -131 3 -137
-4 -2 -2 -17 -1 -31 2 -15 4 -90 5 -167 2z"/>
<path d="M2652 3946 l-37 -34 -3 -1204 c-2 -1182 -2 -1204 18 -1235 34 -57 57
-61 365 -61 231 -1 275 1 265 12 -6 8 -13 25 -16 37 -2 13 -5 258 -6 545 -1
494 0 523 18 559 27 54 64 72 152 72 40 0 75 3 78 5 3 3 20 2 39 -2 18 -4 37
-4 42 1 13 13 96 -35 116 -68 19 -33 20 -91 18 -876 l-1 -229 -29 -29 -30 -29
308 2 c277 3 309 5 325 21 10 9 21 17 26 17 4 0 15 17 23 38 13 33 15 188 15
1212 0 1286 3 1221 -60 1260 -32 20 -48 20 -811 20 l-777 0 -38 -34z m976
-343 c51 -37 56 -62 56 -258 0 -197 -5 -221 -57 -259 -25 -18 -43 -21 -140
-22 -123 -1 -158 9 -192 54 -18 25 -20 43 -20 227 0 184 2 202 20 227 32 43
73 54 196 53 93 -1 114 -5 137 -22z"/>
</g>
</svg>
