<?xml version="1.0" standalone="no"?>
<!DOCTYPE svg PUBLIC "-//W3C//DTD SVG 20010904//EN"
 "http://www.w3.org/TR/2001/REC-SVG-20010904/DTD/svg10.dtd">
<svg version="1.0" xmlns="http://www.w3.org/2000/svg"
 width="1280.000000pt" height="1278.000000pt" viewBox="0 0 1280.000000 1278.000000"
 preserveAspectRatio="xMidYMid meet">
<metadata>
Created by potrace 1.15, written by Peter Selinger 2001-2017
</metadata>
<g transform="translate(0.000000,1278.000000) scale(0.100000,-0.100000)"
fill="#000000" stroke="none">
<path d="M7948 11224 c-458 -71 -953 -326 -1220 -629 -494 -561 -517 -1347
-64 -2230 150 -293 279 -478 465 -669 251 -257 528 -414 851 -483 119 -25 446
-25 574 1 458 92 901 330 1158 621 485 549 512 1328 78 2220 -331 679 -809
1086 -1374 1170 -125 18 -348 18 -468 -1z m153 -1240 c72 -39 180 -150 254
-259 128 -193 295 -568 356 -802 40 -153 43 -265 10 -338 -61 -137 -233 -222
-362 -180 -137 45 -314 301 -497 715 -110 250 -161 434 -162 583 0 120 14 168
64 223 87 95 224 118 337 58z"/>
<path d="M4540 9660 c-509 -231 -936 -428 -949 -438 -14 -10 -34 -36 -45 -57
-44 -86 -84 10 698 -1715 395 -872 730 -1607 744 -1633 34 -64 89 -97 161 -97
47 0 138 39 959 411 499 226 926 422 949 435 58 34 87 85 87 154 0 50 -15 88
-163 414 -91 197 -176 372 -190 389 -32 38 -78 57 -137 57 -39 0 -107 -27
-418 -169 -204 -92 -380 -171 -391 -174 -18 -6 -27 8 -73 110 -29 64 -49 120
-44 125 4 4 151 73 326 152 175 80 327 153 339 163 29 26 57 92 57 138 0 30
-39 125 -161 395 -132 292 -167 362 -198 392 -42 40 -105 62 -148 52 -15 -3
-173 -71 -351 -151 -178 -80 -325 -143 -328 -141 -6 7 -112 243 -109 246 1 1
170 78 376 171 243 110 387 181 412 203 46 39 71 105 62 157 -4 20 -82 200
-174 400 -192 420 -193 423 -304 428 l-62 4 -925 -421z"/>
<path d="M2630 8789 c-507 -76 -976 -297 -1256 -590 -278 -292 -408 -672 -349
-1015 66 -376 295 -677 638 -839 228 -107 476 -173 892 -235 348 -52 426 -75
451 -137 13 -30 12 -37 -6 -73 -22 -44 -86 -90 -175 -127 -125 -53 -309 -83
-561 -91 -186 -7 -192 -8 -232 -35 -23 -15 -51 -45 -62 -67 -41 -80 -36 -94
160 -527 98 -218 190 -407 202 -421 13 -14 43 -34 67 -44 49 -22 120 -20 316
8 397 58 813 235 1106 472 285 230 494 572 539 881 17 114 8 304 -19 407 -51
197 -156 382 -295 519 -139 137 -291 223 -536 305 -250 83 -400 115 -695 149
-249 30 -382 64 -445 118 -38 31 -38 53 1 97 91 104 326 170 654 182 130 5
157 9 200 30 71 33 100 80 100 158 -1 57 -12 85 -169 431 -93 204 -177 382
-188 397 -27 40 -95 68 -159 67 -30 0 -110 -9 -179 -20z"/>
<path d="M9625 7115 c-654 -74 -1213 -138 -1241 -145 l-51 -11 4 -47 c3 -26
34 -121 69 -212 35 -91 64 -178 64 -192 0 -24 -16 -34 -202 -126 -271 -133
-427 -237 -753 -502 -339 -275 -597 -380 -1018 -410 -366 -27 -431 -33 -563
-55 -329 -56 -633 -154 -927 -301 -253 -127 -417 -235 -687 -453 -403 -324
-601 -404 -1080 -431 -358 -20 -588 -55 -845 -126 -72 -19 -160 -49 -196 -66
l-67 -30 5 -41 c6 -54 79 -246 107 -281 l21 -27 81 25 c166 50 303 69 601 86
480 27 845 117 1203 295 230 114 390 220 660 436 307 246 507 355 785 429 152
41 271 58 475 70 217 13 329 24 490 51 540 90 996 306 1494 708 267 215 468
341 550 345 30 1 30 0 106 -189 85 -215 105 -255 124 -255 8 0 112 71 233 158
1238 896 1831 1328 1848 1344 16 15 17 20 7 27 -10 6 -5 15 20 35 l33 26 -80
-1 c-44 -1 -615 -61 -1270 -134z"/>
<path d="M9715 5981 c-79 -37 -140 -98 -178 -179 l-32 -67 0 -2330 c0 -2217 1
-2332 18 -2358 l18 -27 566 2 567 3 13 45 c11 37 13 481 11 2360 l-3 2315 -26
56 c-38 80 -90 133 -171 174 l-71 35 -326 0 -326 -1 -60 -28z"/>
<path d="M8419 5560 c-107 -19 -206 -99 -256 -205 l-28 -60 -2 -2085 c-2
-1641 0 -2096 10 -2135 l12 -50 575 0 575 0 12 50 c10 39 12 494 10 2135 l-2
2085 -28 60 c-36 78 -104 146 -181 182 l-61 28 -295 2 c-162 1 -316 -2 -341
-7z"/>
<path d="M7065 5121 c-112 -16 -215 -93 -267 -199 l-33 -67 -3 -1870 c-2
-1514 0 -1879 11 -1915 l13 -45 567 -3 566 -2 18 27 c17 26 18 122 18 1918 l0
1890 -27 55 c-41 83 -89 133 -170 176 l-73 38 -285 2 c-157 1 -307 -1 -335 -5z"/>
<path d="M5612 4458 c-76 -30 -145 -96 -184 -176 l-33 -67 -3 -1555 c-2 -1293
0 -1563 11 -1596 l14 -39 569 0 569 0 15 30 c13 26 15 217 15 1590 l0 1560
-31 65 c-43 91 -83 133 -166 175 l-71 35 -326 -1 c-307 0 -329 -2 -379 -21z"/>
<path d="M4263 3762 c-100 -36 -167 -95 -212 -192 l-26 -55 -3 -1206 c-2 -998
0 -1212 11 -1245 l14 -39 569 0 569 0 15 30 c13 26 15 178 15 1230 l0 1200
-24 63 c-32 85 -95 153 -179 194 l-67 33 -315 2 c-283 3 -320 1 -367 -15z"/>
<path d="M2914 3141 c-103 -26 -204 -115 -242 -216 l-22 -57 0 -889 c0 -754 2
-895 14 -924 l15 -35 565 0 565 0 18 32 c17 31 18 89 18 923 l0 890 -23 57
c-31 76 -108 160 -180 195 l-57 28 -320 2 c-176 1 -334 -2 -351 -6z"/>
</g>
</svg>
